# AST/ASF file generated using VICON BodyLanguage
# -----------------------------------------------
:version 1.10
:name VICON
:units
  mass 1.0
  length 0.45
  angle deg
:documentation
   .ast/.asf automatically generated from VICON data using
   VICON BodyBuilder and BodyLanguage model FoxedUp or BRILLIANT.MOD
:root
   order TX TY TZ RX RY RZ
   axis XYZ
   position 0 0 0  
   orientation 0 0 0 
:bonedata
  begin
     id 1 
     name lhipjoint
     direction 0.78388 -0.462562 0.414208 
     length 3.01181 
     axis 0 0 0  XYZ
  end
  begin
     id 2 
     name lfemur
     direction 0.34202 -0.939693 0  
     length 6.04673  
     axis 0 0 20  XYZ
    dof rx ry rz
    limits (-160.0 20.0)
           (-70.0 70.0)
           (-60.0 70.0)
  end
  begin
     id 3 
     name ltibia
     direction 0.34202 -0.939693 0   
     length 7.211   
     axis 0 0 20   XYZ
    dof rx
    limits (-10.0 170.0)
  end
  begin
     id 4 
     name lfoot
     direction 0.121887 -0.334882 0.934344   
     length 2.13567   
     axis -90 7.62852e-016 20   XYZ
    dof rx rz
    limits (-45.0 90.0)
           (-70.0 20.0)
  end
  begin
     id 5 
     name ltoes
     direction 1.53555e-011 -4.2179e-011 1   
     length 1.05957   
     axis -90 7.62852e-016 20   XYZ
    dof rx
    limits (-90.0 20.0)
  end
  begin
     id 6 
     name rhipjoint
     direction -0.769387 -0.475875 0.426129   
     length 2.92756  
     axis 0 0 0  XYZ 
  end
  begin
     id 7 
     name rfemur
     direction -0.34202 -0.939693 0   
     length 6.35468   
     axis 0 0 -20   XYZ
    dof rx ry rz
    limits (-160.0 20.0)
           (-70.0 70.0)
           (-70.0 60.0)
  end
  begin
     id 8 
     name rtibia
     direction -0.34202 -0.939693 0   
     length 7.37886   
     axis 0 0 -20   XYZ
    dof rx
    limits (-10.0 170.0)
 end
 begin
     id 9 
     name rfoot
     direction -0.101763 -0.279592 0.954711   
     length 2.21478  
     axis -90 -7.62852e-016 -20   XYZ
    dof rx rz
    limits (-45.0 90.0)
           (-20.0 70.0)
  end
  begin
     id 10 
     name rtoes
     direction -1.53494e-011 -4.21851e-011 1   
     length 1.10506   
     axis -90 -7.62852e-016 -20   XYZ
    dof rx
    limits (-90.0 20.0)
  end
  begin
     id 11 
     name lowerback
     direction 0.00747405 0.999267 0.0375481   
     length 2.13259   
     axis 0 0 0   XYZ
    dof rx ry rz
    limits (-20.0 45.0)
           (-30.0 30.0)
           (-30.0 30.0)
  end
  begin
     id 12 
     name upperback
     direction 0.00661626 0.996177 0.0871029   
     length 2.10528   
     axis 0 0 0   XYZ
    dof rx ry rz
    limits (-20.0 45.0)
           (-30.0 30.0)
           (-30.0 30.0)
  end
  begin
     id 13 
     name thorax
     direction 0.00320659 0.997679 0.0680167   
     length 2.11338   
     axis 0 0 0   XYZ
    dof rx ry rz
    limits (-20.0 45.0)
           (-30.0 30.0)
           (-30.0 30.0)
  end
  begin
     id 14 
     name lowerneck
     direction 0.0374841 0.973033 0.227602   
     length 1.42765   
     axis 0 0 0   XYZ
    dof rx ry rz
    limits (-20.0 45.0)
           (-30.0 30.0)
           (-30.0 30.0)
  end
  begin
     id 15 
     name upperneck
     direction 0.00481585 0.989155 -0.146795   
     length 1.47593   
     axis 0 0 0   XYZ
    dof rx ry rz
    limits (-20.0 45.0)
           (-30.0 30.0)
           (-30.0 30.0)
  end
  begin
     id 16
     name head
     direction -0.00292522 0.997206 -0.0746423  
     length 1.48116  
     axis 0 0 0   XYZ
    dof rx ry rz
    limits (-20.0 45.0)
           (-30.0 30.0)
           (-30.0 30.0)
  end
  begin
     id 17 
     name lclavicle
     direction 0.951444 0.305606 0.0368784  
     length 3.01855  
     axis 0 0 0   XYZ
    dof ry rz
    limits (-20.0 10.0)
           (0.0 20.0)
  end
  begin
     id 18 
     name lhumerus
     direction 1 -4.48977e-011 2.61664e-027   
     length 5.52731   
     axis 180 -30 -90   XYZ
    dof rx ry rz
    limits (-60.0 90.0)
           (-90.0 90.0)
           (-90.0 90.0)
  end
  begin
     id 19
     name lradius
     direction 1 -4.48944e-011 8.22157e-027   
     length 3.11059   
     axis 180 -30 -90   XYZ
    dof rx
    limits (-10.0 170.0)
  end
  begin
     id 20
     name lwrist
     direction 1 -4.48976e-011 1.5779e-026   
     length 1.5553   
     axis -1.15221e-014 90 90   XYZ
    dof ry
    limits (-180.0 0.0)
 end
  begin
     id 21 
     name lhand
     direction 1 -4.49025e-011 3.1558e-026   
     length 0.419626   
     axis -2.01367e-014 90 90   XYZ
    dof rx rz
    limits (-90.0 90.0)
           (-45.0 45.0)
  end
  begin
     id 22 
     name lfingers
     direction 1 -4.4904e-011 6.31161e-026   
     length 0.338313   
     axis -4.02734e-014 90 90   XYZ
    dof rx
    limits (0.0 90.0)
  end
  begin
     id 23
     name lthumb
     direction 0.707107 -6.35004e-011 0.707107   
     length 0.485752   
     axis -90 45 2.85299e-015   XYZ
    dof rx rz
    limits (-45.0 45.0)
           (-45.0 45.0)
  end
  begin
     id 24 
     name rclavicle
     direction -0.968876 0.223791 0.105816   
     length 3.04177  
     axis 0 0 0   XYZ 
    dof ry rz
    limits (-10.0 20.0)
           (-20.0 0.0)
  end
  begin
     id 25 
     name rhumerus
     direction -1 -4.48962e-011 -1.01384e-027  
     length 5.25396   
     axis 180 30 90   XYZ
    dof rx ry rz
    limits (-90.0 60.0)
           (-90.0 90.0)
           (-90.0 90.0)
  end
  begin
     id 26 
     name rradius
     direction -1 -4.48955e-011 8.88542e-027   
     length 3.10567   
     axis 180 30 90   XYZ
    dof rx
    limits (-10.0 170.0)
  end
  begin
     id 27 
     name rwrist
     direction -1 -4.48994e-011 1.5779e-026   
     length 1.55283   
     axis -1.15221e-014 -90 -90   XYZ
    dof ry
    limits (-180.0 0.0)
  end
  begin
     id 28
     name rhand
     direction -1 -4.48891e-011 3.1558e-026   
     length 0.498676   
     axis -2.01367e-014 -90 -90   XYZ
    dof rx rz
    limits (-90.0 90.0)
           (-45.0 45.0)
  end
  begin
     id 29
     name rfingers
     direction -1 -4.48972e-011 6.31161e-026   
     length 0.402045   
     axis -4.02734e-014 -90 -90   XYZ
    dof rx
    limits (0.0 90.0)
  end
  begin
     id 30
     name rthumb
     direction -0.707107 -6.34849e-011 0.707107   
     length 0.577259   
     axis -90 -45 -2.85299e-015   XYZ
    dof rx rz
    limits (-45.0 45.0)
           (-45.0 45.0)
  end
:hierarchy
  begin
    root lhipjoint rhipjoint lowerback
    lhipjoint lfemur
    lfemur ltibia
    ltibia lfoot
    lfoot ltoes
    rhipjoint rfemur
    rfemur rtibia
    rtibia rfoot
    rfoot rtoes
    lowerback upperback
    upperback thorax
    thorax lowerneck lclavicle rclavicle
    lowerneck upperneck
    upperneck head
    lclavicle lhumerus
    lhumerus lradius
    lradius lwrist
    lwrist lhand lthumb
    lhand lfingers
    rclavicle rhumerus
    rhumerus rradius
    rradius rwrist
    rwrist rhand rthumb
    rhand rfingers
  end

#!OML:ASF H:\Pregnant\Project 1\Capture day 1\Session 1\femalepreg.ASF
:FULLY-SPECIFIED
:DEGREES
336
root 5.83189 2.10389 29.1261 54.6387 -14.063 257.697
lowerback -5.13946 8.72425 -4.50009
upperback -4.86598 11.7493 -0.313294
thorax -3.04437 6.02706 2.3191
lowerneck -18.741 4.23299 -0.573455
upperneck 34.8929 -0.1735 18.4061
head 15.5692 2.0812 8.03795
rclavicle -1.22451e-013 1.88845e-014
rhumerus 15.1513 83.4845 -69.0407
rradius 83.576
rwrist -19.8808
rhand -66.8345 -83.0429
rfingers 7.12502
rthumb -38.6308 108.668
lclavicle -1.22451e-013 1.88845e-014
lhumerus 48.5155 -40.2596 58.654
lradius 40.2149
lwrist 43.4864
lhand -0.110773 9.87249
lfingers 7.12502
lthumb 25.4843 38.1884
rfemur -42.2004 1.16209 23.0148
rtibia 115.044
rfoot 45.5193 9.1794
rtoes 32.6115
lfemur -63.0312 23.6325 -31.3025
ltibia 137.602
lfoot -7.52259 -23.8381
ltoes -62.7615
337
root 5.81455 2.11676 29.1457 54.4733 -13.6967 258.14
lowerback -5.16023 8.65091 -4.57226
upperback -4.8421 11.6548 -0.329887
thorax -3.01158 5.98049 2.34624
lowerneck -18.7396 4.14643 -0.732828
upperneck 34.8245 -0.315823 18.6344
head 15.5588 2.02746 8.14349
rclavicle -5.725e-014 6.63941e-014
rhumerus 12.3913 83.3119 -71.6598
rradius 83.6724
rwrist -19.6251
rhand -66.8296 -85.6007
rfingers 7.12502
rthumb -38.6262 111.227
lclavicle -5.725e-014 6.63941e-014
lhumerus 48.8798 -40.7142 58.3917
lradius 40.1148
lwrist 43.2962
lhand -0.178739 9.82795
lfingers 7.12502
lthumb 25.4192 38.1532
rfemur -42.4368 1.09538 23.1746
rtibia 114.752
rfoot 44.2973 9.02921
rtoes 31.5919
lfemur -62.7726 22.8537 -31.3758
ltibia 137.673
lfoot -7.99753 -23.2639
ltoes -63.0498
338
root 5.79769 2.12938 29.165 54.309 -13.322 258.576
lowerback -5.17052 8.5777 -4.62967
upperback -4.81585 11.5599 -0.345326
thorax -2.9791 5.93322 2.36553
lowerneck -18.7364 4.06349 -0.883174
upperneck 34.7574 -0.452615 18.8534
head 15.5487 1.97581 8.24426
rclavicle -7.63333e-014 -2.18663e-014
rhumerus 9.77906 83.1169 -74.1307
rradius 83.7712
rwrist -19.3665
rhand -66.8067 -87.7437
rfingers 7.12502
rthumb -38.6045 113.376
lclavicle -7.63333e-014 -2.18663e-014
lhumerus 49.2468 -41.1527 58.1282
lradius 40.0223
lwrist 43.093
lhand -0.233409 9.79233
lfingers 7.12502
lthumb 25.3668 38.125
rfemur -42.6836 1.02828 23.33
rtibia 114.467
rfoot 43.1186 8.91272
rtoes 30.5576
lfemur -62.5267 22.0509 -31.4549
ltibia 137.725
lfoot -8.39554 -22.7383
ltoes -63.3286
339
root 5.78134 2.14174 29.1843 54.1433 -12.942 259.003
lowerback -5.1691 8.50566 -4.67398
upperback -4.78626 11.4658 -0.359935
thorax -2.94703 5.88593 2.37738
lowerneck -18.7318 3.98461 -1.02306
upperneck 34.6912 -0.584084 19.0641
head 15.5387 1.92652 8.34042
rclavicle -1.43125e-014 -3.43897e-014
rhumerus 7.33554 82.8979 -76.4332
rradius 83.8701
rwrist -19.0997
rhand -66.7618 -89.3677
rfingers 7.12502
rthumb -38.5622 115.012
lclavicle -1.43125e-014 -3.43897e-014
lhumerus 49.6172 -41.5756 57.8631
lradius 39.9388
lwrist 42.8821
lhand -0.277869 9.76561
lfingers 7.12502
lthumb 25.3242 38.1043
rfemur -42.9333 0.968952 23.478
rtibia 114.188
rfoot 42.001 8.81477
rtoes 29.569
lfemur -62.2848 21.2358 -31.531
ltibia 137.758
lfoot -8.7333 -22.2652
ltoes -63.5985
340
root 5.7655 2.15385 29.2034 53.9735 -12.5604 259.422
lowerback -5.15449 8.43575 -4.70792
upperback -4.75268 11.3738 -0.374401
thorax -2.91608 5.83927 2.3823
lowerneck -18.7259 3.90992 -1.15113
upperneck 34.6256 -0.71106 19.268
head 15.529 1.87962 8.43221
rclavicle 4.13472e-014 4.81059e-014
rhumerus 5.07319 82.6543 -78.5563
rradius 83.9671
rwrist -18.8218
rhand -66.693 90.3635
rfingers 7.12502
rthumb -38.4973 116.026
lclavicle 4.13472e-014 4.81059e-014
lhumerus 49.9926 -41.985 57.5944
lradius 39.865
lwrist 42.6706
lhand -0.317472 9.74583
lfingers 7.12502
lthumb 25.2863 38.0899
rfemur -43.179 0.923899 23.615
rtibia 113.913
rfoot 40.9499 8.72437
rtoes 28.6559
lfemur -62.0383 20.4209 -31.5978
ltibia 137.774
lfoot -9.02796 -21.8392
ltoes -63.8585
341
root 5.7502 2.16569 29.2224 53.7977 -12.181 259.833
lowerback -5.12625 8.36857 -4.73498
upperback -4.71523 11.2847 -0.38936
thorax -2.88729 5.79372 2.38136
lowerneck -18.7178 3.83959 -1.26588
upperneck 34.5611 -0.83416 19.4659
head 15.5195 1.8351 8.51961
rclavicle 6.99722e-014 -2.38542e-015
rhumerus 2.99353 82.3881 -80.4999
rradius 84.06
rwrist -18.533
rhand -66.6014 90.6758
rfingers 7.12502
rthumb -38.4108 116.362
lclavicle 6.99722e-014 -2.38542e-015
lhumerus 50.3733 -42.3835 57.3215
lradius 39.8002
lwrist 42.4643
lhand -0.357398 9.72969
lfingers 7.12502
lthumb 25.248 38.0792
rfemur -43.4154 0.898503 23.7367
rtibia 113.643
rfoot 39.9625 8.63659
rtoes 27.819
lfemur -61.7809 19.6171 -31.6531
ltibia 137.776
lfoot -9.29381 -21.4495
ltoes -64.1082
342
root 5.73544 2.17726 29.2413 53.6156 -11.8064 260.238
lowerback -5.08509 8.30414 -4.7584
upperback -4.67446 11.1985 -0.404877
thorax -2.86156 5.74945 2.37622
lowerneck -18.7066 3.77368 -1.36706
upperneck 34.4982 -0.954034 19.6595
head 15.5104 1.79287 8.60323
rclavicle 5.88403e-014 1.90833e-014
rhumerus 1.09207 82.1031 -82.2693
rradius 84.1477
rwrist -18.2356
rhand -66.4893 90.3571
rfingers 7.12502
rthumb -38.305 116.073
lclavicle 5.88403e-014 1.90833e-014
lhumerus 50.7585 -42.7732 57.0454
lradius 39.7427
lwrist 42.2686
lhand -0.402774 9.71271
lfingers 7.12502
lthumb 25.2045 38.0683
rfemur -43.6395 0.896659 23.8399
rtibia 113.376
rfoot 39.0331 8.55289
rtoes 27.0385
lfemur -61.509 18.8335 -31.6982
ltibia 137.771
lfoot -9.54053 -21.0824
ltoes -64.3472
343
root 5.72119 2.18856 29.2602 53.4285 -11.4377 260.636
lowerback -5.0335 8.24197 -4.7806
upperback -4.63161 11.1149 -0.420163
thorax -2.83943 5.70636 2.36921
lowerneck -18.6915 3.71228 -1.45498
upperneck 34.4384 -1.07089 19.8497
head 15.5022 1.75285 8.68365
rclavicle 9.54166e-015 1.82882e-014
rhumerus -0.6474 81.8049 -83.8806
rradius 84.2297
rwrist -17.9333
rhand -66.3606 -89.5342
rfingers 7.12502
rthumb -38.1835 115.283
lclavicle 9.54166e-015 1.82882e-014
lhumerus 51.1456 -43.1556 56.7688
lradius 39.6904
lwrist 42.0887
lhand -0.457809 9.69108
lfingers 7.12502
lthumb 25.1518 38.0541
rfemur -43.8507 0.921363 23.9233
rtibia 113.114
rfoot 38.1569 8.47859
rtoes 26.2888
lfemur -61.2228 18.0757 -31.7357
ltibia 137.761
lfoot -9.77349 -20.7256
ltoes -64.5762
344
root 5.70737 2.19958 29.2791 53.2393 -11.0737 261.027
lowerback -4.97602 8.18088 -4.80247
upperback -4.58757 11.0324 -0.433219
thorax -2.81981 5.66395 2.36346
lowerneck -18.6724 3.65567 -1.53088
upperneck 34.3829 -1.184 20.0364
head 15.4953 1.71517 8.76132
rclavicle 5.725e-014 5.40694e-014
rhumerus -2.23829 81.5004 -85.3454
rradius 84.3063
rwrist -17.6288
rhand -66.2179 -88.3752
rfingers 7.12502
rthumb -38.0488 114.161
lclavicle 5.725e-014 5.40694e-014
lhumerus 51.5306 -43.5303 56.4974
lradius 39.6407
lwrist 41.928
lhand -0.52516 9.66213
lfingers 7.12502
lthumb 25.0873 38.0342
rfemur -44.05 0.974361 23.9876
rtibia 112.856
rfoot 37.3329 8.42135
rtoes 25.5493
lfemur -60.9248 17.3451 -31.7672
ltibia 137.751
lfoot -9.99622 -20.3731
ltoes -64.7961
345
root 5.69389 2.21027 29.2981 53.0517 -10.712 261.411
lowerback -4.91851 8.11922 -4.82379
upperback -4.54296 10.9495 -0.441136
thorax -2.8005 5.62145 2.36266
lowerneck -18.6496 3.60406 -1.59782
upperneck 34.3323 -1.2921 20.2199
head 15.4895 1.68003 8.83722
rclavicle -8.11041e-014 -2.5842e-015
rhumerus -3.69337 81.1973 -86.6736
rradius 84.3782
rwrist -17.3235
rhand -66.063 -87.0449
rfingers 7.12502
rthumb -37.9025 112.871
lclavicle -8.11041e-014 -2.5842e-015
lhumerus 51.9102 -43.8959 56.2363
lradius 39.5912
lwrist 41.79
lhand -0.606316 9.62539
lfingers 7.12502
lthumb 25.0095 38.0083
rfemur -44.2402 1.05613 24.0357
rtibia 112.601
rfoot 36.5638 8.38766
rtoes 24.8153
lfemur -60.6196 16.6404 -31.7934
ltibia 137.743
lfoot -10.2095 -20.0218
ltoes -65.0072
346
root 5.68064 2.22062 29.3172 52.8696 -10.3493 261.787
lowerback -4.86776 8.05491 -4.84438
upperback -4.49736 10.8638 -0.440483
thorax -2.77778 5.57782 2.37129
lowerneck -18.6245 3.55774 -1.65975
upperneck 34.2869 -1.39307 20.3993
head 15.4848 1.64783 8.91211
rclavicle 1.7175e-013 3.3197e-014
rhumerus -5.017 80.9032 -87.8655
rradius 84.4467
rwrist -17.0163
rhand -65.8954 -85.6622
rfingers 7.12502
rthumb -37.7442 111.531
lclavicle 1.7175e-013 3.3197e-014
lhumerus 52.2818 -44.2487 55.9909
lradius 39.5395
lwrist 41.6786
lhand -0.701577 9.58242
lfingers 7.12502
lthumb 24.9182 37.978
rfemur -44.4248 1.16552 24.0706
rtibia 112.349
rfoot 35.8565 8.38089
rtoes 24.1021
lfemur -60.3132 15.9556 -31.8145
ltibia 137.737
lfoot -10.413 -19.6755
ltoes -65.2104
347
root 5.66751 2.2306 29.3364 52.6966 -9.98265 262.155
lowerback -4.83075 7.98551 -4.86474
upperback -4.44922 10.7727 -0.427544
thorax -2.7467 5.53177 2.39459
lowerneck -18.5997 3.51686 -1.72254
upperneck 34.2466 -1.48434 20.5739
head 15.481 1.61898 8.98725
rclavicle 3.18055e-014 2.78299e-015
rhumerus -6.20499 80.626 -88.9124
rradius 84.5126
rwrist -16.703
rhand -65.7128 -84.2954
rfingers 7.12502
rthumb -37.5716 110.21
lclavicle 3.18055e-014 2.78299e-015
lhumerus 52.6451 -44.5834 55.7651
lradius 39.4835
lwrist 41.5973
lhand -0.809238 9.53619
lfingers 7.12502
lthumb 24.815 37.946
rfemur -44.6082 1.29984 24.0952
rtibia 112.1
rfoot 35.2188 8.40223
rtoes 23.4386
lfemur -60.0122 15.2831 -31.8326
ltibia 137.733
lfoot -10.6038 -19.3382
ltoes -65.4069
348
root 5.65442 2.24019 29.3555 52.535 -9.61024 262.517
lowerback -4.81404 7.90837 -4.88719
upperback -4.39566 10.6734 -0.398743
thorax -2.70146 5.48191 2.43861
lowerneck -18.579 3.4814 -1.79322
upperneck 34.2115 -1.56308 20.7423
head 15.4783 1.59385 9.06403
rclavicle -2.22639e-014 -3.26007e-014
rhumerus -7.24225 80.3733 -89.7946
rradius 84.5773
rwrist -16.3786
rhand -65.5107 -82.9582
rfingers 7.12502
rthumb -37.3806 108.923
lclavicle -2.22639e-014 -3.26007e-014
lhumerus 53.0011 -44.8927 55.5619
lradius 39.4208
lwrist 41.549
lhand -0.927687 9.48844
lfingers 7.12502
lthumb 24.7015 37.9139
rfemur -44.795 1.45527 24.1109
rtibia 111.856
rfoot 34.6587 8.44887
rtoes 22.863
lfemur -59.723 14.6152 -31.8525
ltibia 137.731
lfoot -10.7773 -19.0127
ltoes -65.5986
349
root 5.64132 2.24941 29.3745 52.3862 -9.23163 262.877
lowerback -4.82283 7.82099 -4.91532
upperback -4.33339 10.5632 -0.35104
thorax -2.63668 5.42683 2.50933
lowerneck -18.5668 3.45116 -1.87845
upperneck 34.1826 -1.62653 20.9017
head 15.4773 1.57269 9.14317
rclavicle -1.33583e-013 4.57205e-015
rhumerus -8.11171 80.1517 -90.4911
rradius 84.6419
rwrist -16.0361
rhand -65.284 -81.6268
rfingers 7.12502
rthumb -37.1663 107.648
lclavicle -1.33583e-013 4.57205e-015
lhumerus 53.3506 -45.1685 55.3843
lradius 39.349
lwrist 41.5359
lhand -1.05243 9.44098
lfingers 7.12502
lthumb 24.582 37.8827
rfemur -44.989 1.6273 24.1177
rtibia 111.621
rfoot 34.1814 8.51667
rtoes 22.4091
lfemur -59.4507 13.9441 -31.881
ltibia 137.729
lfoot -10.9282 -18.701
ltoes -65.7882
350
root 5.62815 2.25824 29.3932 52.2505 -8.84731 263.236
lowerback -4.86064 7.72132 -4.95295
upperback -4.25924 10.4396 -0.282502
thorax -2.54778 5.36532 2.6114
lowerneck -18.5672 3.42554 -1.98397
upperneck 34.1616 -1.67289 21.0491
head 15.4791 1.5554 9.22512
rclavicle 1.27222e-013 -1.49089e-014
rhumerus -8.7975 79.966 -90.9835
rradius 84.7073
rwrist -15.6686
rhand -65.0275 -80.2784
rfingers 7.12502
rthumb -36.9237 106.363
lclavicle 1.27222e-013 -1.49089e-014
lhumerus 53.6932 -45.4031 55.236
lradius 39.2661
lwrist 41.5575
lhand -1.17961 9.39221
lfingers 7.12502
lthumb 24.46 37.8505
rfemur -45.1926 1.81147 24.1148
rtibia 111.397
rfoot 33.7884 8.5995
rtoes 22.0995
lfemur -59.1989 13.2629 -31.9249
ltibia 137.727
lfoot -11.0534 -18.4043
ltoes -65.9777
